<svg id="Layer_1" data-name="Layer 1" xmlns="http://www.w3.org/2000/svg" viewBox="0 0 798.52 798.52"><defs><style>.cls-1{font-size:76px;fill:#6b705c;font-family:RoslindaleText-Bold, Roslindale Text;font-weight:700;}</style></defs><text class="cls-1" transform="translate(198.59 289.36) rotate(-54.48)">R</text><text class="cls-1" transform="matrix(0.71, -0.71, 0.71, 0.71, 229.57, 247.65)">i</text><text class="cls-1" transform="translate(245.71 230.63) rotate(-37.37)">c</text><text class="cls-1" transform="translate(274.29 207.9) rotate(-26.87)">h</text><text class="cls-1" transform="translate(316.29 186.63) rotate(-15.73)">a</text><text class="cls-1" transform="matrix(0.99, -0.11, 0.11, 0.99, 357.09, 175.36)">r</text><text class="cls-1" transform="translate(389.31 170.99) rotate(3.57)">d</text><text class="cls-1" transform="matrix(0.98, 0.2, -0.2, 0.98, 435.9, 174.85)"> </text><text class="cls-1" transform="translate(450.93 175.91) rotate(20.71)">G</text><text class="cls-1" transform="translate(505.06 197.86) rotate(30.85)">i</text><text class="cls-1" transform="matrix(0.78, 0.63, -0.63, 0.78, 525.53, 209.11)">a</text><text class="cls-1" transform="translate(558.46 235.19) rotate(50.45)">n</text><text class="cls-1" transform="translate(588.77 271.97) rotate(61.75)">g</text><text class="cls-1" transform="translate(608.33 310) rotate(69.04)"> </text><text class="cls-1" transform="matrix(0.29, 0.96, -0.96, 0.29, 614.06, 324.87)"> </text><text class="cls-1" transform="translate(618.75 340.14) rotate(77.04)"> </text><text class="cls-1" transform="matrix(0.16, 0.99, -0.99, 0.16, 622.36, 355.67)"> </text><text class="cls-1" transform="translate(624.88 371.44) rotate(85.05)"> </text><text class="cls-1" transform="translate(626.29 387.32) rotate(89.07)"> </text><text class="cls-1" transform="matrix(-0.05, 1, -1, -0.05, 626.58, 403.26)"> </text><text class="cls-1" transform="matrix(-0.12, 0.99, -0.99, -0.12, 625.76, 419.2)"> </text><text class="cls-1" transform="translate(623.81 435.03) rotate(101.19)"> </text><text class="cls-1" transform="translate(620.74 450.68) rotate(105.24)"> </text><text class="cls-1" transform="matrix(-0.4, 0.92, -0.92, -0.4, 618.05, 465.63)">F</text><text class="cls-1" transform="translate(598.02 509.94) rotate(122.23)">i</text><text class="cls-1" transform="translate(586.6 530.19) rotate(131.2)">n</text><text class="cls-1" transform="translate(554.32 565.82) rotate(140.23)">i</text><text class="cls-1" transform="translate(536.66 581.28) rotate(147.93)">s</text><text class="cls-1" transform="translate(505.8 601.42) rotate(158.47)">h</text><text class="cls-1" transform="translate(461.09 618) rotate(166.33)"> </text><text class="cls-1" transform="translate(447.41 622.25) rotate(173.07)">y</text><text class="cls-1" transform="translate(409.36 627.43) rotate(-176.69)">o</text><text class="cls-1" transform="matrix(-0.97, -0.26, 0.26, -0.97, 365.08, 625.22)">u</text><text class="cls-1" transform="translate(320.15 612.94) rotate(-155.21)">r</text><text class="cls-1" transform="translate(290.43 598.82) rotate(-149.3)"> </text><text class="cls-1" transform="translate(276.78 591.13) rotate(-143.84)">f</text><text class="cls-1" transform="translate(255.09 576.41) rotate(-135)">o</text><text class="cls-1" transform="translate(223.53 545.19) rotate(-123.78)">o</text><text class="cls-1" transform="matrix(-0.38, -0.92, 0.92, -0.38, 198.6, 508.51)">d</text><text class="cls-1" transform="translate(181.57 465.13) rotate(-103.97)">.</text></svg>